<?xml version="1.0" encoding="utf-8"?>
<!-- Generator: Adobe Illustrator 15.1.0, SVG Export Plug-In . SVG Version: 6.00 Build 0)  -->
<!DOCTYPE svg PUBLIC "-//W3C//DTD SVG 1.1//EN" "http://www.w3.org/Graphics/SVG/1.1/DTD/svg11.dtd">
<svg version="1.1" id="Layer_1" xmlns="http://www.w3.org/2000/svg" xmlns:xlink="http://www.w3.org/1999/xlink" x="0px" y="0px"
	 width="612px" height="792px" viewBox="0 0 612 792" enable-background="new 0 0 612 792" xml:space="preserve">
<path fill-rule="evenodd" clip-rule="evenodd" stroke="#000000" stroke-width="2.9999" stroke-linecap="round" stroke-linejoin="round" stroke-miterlimit="22.9256" d="
	M373.622,749.616c10.075-2.938,16.117-6.418,20.051-12.837c3.933-6.417,5.757-15.772,6.452-35.57
	c0.696-19.799,0.265-50.039-0.07-103.886s-0.572-131.298-1.85-175.028c-1.277-43.729-3.597-53.737-7.658-63.962
	c-4.063-10.226-9.869-20.668-14.452-29.262c-4.582-8.594-7.942-15.338-10.37-25.346c-2.427-10.008-3.922-23.279-6.911-49.713
	c-2.988-26.434-7.471-66.03-11.272-96.054c-3.801-30.023-6.921-50.474-8.494-61.569c-1.572-11.096-1.598-12.836,0.341-14.142
	c1.94-1.305,5.844-2.175,7.336-4.351c1.491-2.176,0.572-5.657-0.544-7.615c-1.116-1.958-2.428-10.852-1.923-13.571
	c0.505-2.719,2.829-6.789,2.996-10.156c0.668-13.406-82.174-13.406-81.506,0c0.167,3.367,2.491,7.437,2.996,10.156
	c0.505,2.72-0.807,11.613-1.922,13.571c-1.116,1.958-2.036,5.439-0.544,7.615s5.396,3.046,7.335,4.351
	c1.939,1.305,1.914,3.045,0.341,14.142c-1.573,11.095-4.693,31.546-8.494,61.569c-3.802,30.023-8.285,69.62-11.273,96.054
	c-2.989,26.434-4.483,39.705-6.911,49.713c-2.428,10.007-5.788,16.751-10.37,25.346c-4.583,8.593-10.389,19.036-14.452,29.262
	c-4.062,10.225-6.381,20.233-7.658,63.962c-1.278,43.73-1.515,121.182-1.85,175.028c-0.334,53.847-0.767,84.087-0.071,103.886
	c0.696,19.798,2.52,29.153,6.453,35.57c3.933,6.419,9.975,9.899,20.05,12.837C270.859,758.795,342.14,758.795,373.622,749.616z"/>
</svg>
